HIERARCHY
ROOT ui
{
	 OFFSET 0 0 0
	 CHANNELS 3 XPosition YPosition Z Position
	 EndSite
	 {
	 OFFSET 0 -1 0
	 }
}
ROOT li
{
	 OFFSET 0 0 0
	 CHANNELS 3 XPosition YPosition Z Position
	 EndSite
	 {
	 OFFSET 0 -1 0
	 }
}
ROOT ul
{
	 OFFSET 0 0 0
	 CHANNELS 3 XPosition YPosition Z Position
	 EndSite
	 {
	 OFFSET 0 -1 0
	 }
}
ROOT ll
{
	 OFFSET 0 0 0
	 CHANNELS 3 XPosition YPosition Z Position
	 EndSite
	 {
	 OFFSET 0 -1 0
	 }
}
ROOT tt
{
	 OFFSET 0 0 0
	 CHANNELS 3 XPosition YPosition Z Position
	 EndSite
	 {
	 OFFSET 0 -1 0
	 }
}
ROOT tb
{
	 OFFSET 0 0 0
	 CHANNELS 3 XPosition YPosition Z Position
	 EndSite
	 {
	 OFFSET 0 -1 0
	 }
}
ROOT td
{
	 OFFSET 0 0 0
	 CHANNELS 3 XPosition YPosition Z Position
	 EndSite
	 {
	 OFFSET 0 -1 0
	 }
}
ROOT v
{
	 OFFSET 0 0 0
	 CHANNELS 3 XPosition YPosition Z Position
	 EndSite
	 {
	 OFFSET 0 -1 0
	 }
}
ROOT bn
{
	 OFFSET 0 0 0
	 CHANNELS 3 XPosition YPosition Z Position
	 EndSite
	 {
	 OFFSET 0 -1 0
	 }
}
MOTION
Frames: 13
Frame Time: 0.002
0.004581757068634033	-7.939580082893372E-4	0		0.470535400390625	-2.36917138671875	0		-1.1659925537109375	0.03605305099487305	0		-0.6943599243164063	-2.68145166015625	0		1.6014324951171874	-0.6132054443359375	0		3.22615869140625	0.07810964202880859	0		4.63548876953125	0.1546365203857422	0		5.56200390625	0.21504428100585937	0		-0.27294049072265625	5.9371259765625	0		
7.881420254707336E-4	0.0044338078498840335	0		0.4907669982910156	-2.3613134765625	0		-1.16486279296875	0.03621392059326172	0		-0.69528076171875	-2.683263671875	0		1.556684814453125	-0.60436474609375	0		3.202322265625	0.08061861419677735	0		4.6476181640625	0.15458615112304688	0		5.56701220703125	0.20296963500976561	0		-0.3010680541992187	5.917724609375	0		
-0.0010967299938201905	6.253859996795655E-4	0		0.48988665771484374	-2.363142822265625	0		-1.1008770751953125	0.02341193389892578	0		-0.6622296142578125	-2.689598388671875	0		1.5947733154296875	-0.6098004760742187	0		3.20040771484375	0.07477543640136719	0		4.64470458984375	0.148742431640625	0		5.55654736328125	0.22083792114257814	0		-0.1684765930175781	5.93987158203125	0		
-0.002053781986236572	-0.010206232070922852	0		0.49003564453125	-2.364997314453125	0		-1.1746419677734374	0.025708511352539064	0		-0.698034912109375	-2.687887939453125	0		1.5959759521484376	-0.60968505859375	0		3.204710693359375	0.08082305908203125	0		4.64591748046875	0.1488174591064453	0		5.56578271484375	0.19122526550292968	0		-0.16718719482421876	5.94001025390625	0		
-0.005742291927337647	-0.005004220008850098	0		0.4912349853515625	-2.36487841796875	0		-1.0984310302734375	0.023705581665039062	0		-0.6968403930664062	-2.68775146484375	0		1.5972015380859375	-0.609582763671875	0		3.211823486328125	0.072810546875	0		4.65124560546875	0.1548123779296875	0		5.56662890625	0.1861126708984375	0		-0.297215576171875	5.91814453125	0		
0.0025966429710388185	0.0010032689571380616	0		0.4784151611328125	-2.366556884765625	0		-1.1599915771484375	0.03680171585083008	0		-0.6936061401367187	-2.685655517578125	0		1.5674278564453126	-0.6100191650390625	0		3.2023037109375	0.08803963470458985	0		4.65249609375	0.15485121154785156	0		5.559177734375	0.221070068359375	0		-0.29683963012695314	5.92027978515625	0		
0.008786066055297852	-0.0029679501056671144	0		0.5325415649414063	-2.37227197265625	0		-1.0837637939453124	0.03477814483642578	0		-0.6594830322265625	-2.69104345703125	0		1.5627608642578126	-0.6038507690429687	0		3.2143251953125	0.07292095947265625	0		4.65375	0.15487359619140625	0		5.560068359375	0.22108377075195312	0		-0.29451397705078125	5.918375	0		
0.00509194278717041	0.0012040079832077025	0		0.49588412475585936	-2.36260400390625	0		-1.1574949951171876	0.037044654846191405	0		-0.695269287109375	-2.68936767578125	0		1.60091259765625	-0.6093509521484375	0		3.224677001953125	0.07981833648681641	0		4.6509052734375	0.14894525146484375	0		5.56515625	0.208806396484375	0		-0.2931602783203125	5.91847607421875	0		
-0.005712396144866944	-5.233420133590698E-4	0		0.519955322265625	-2.36987744140625	0		-1.093461181640625	0.024187870025634765	0		-0.6622052001953125	-2.69675732421875	0		1.6021263427734376	-0.6092922973632813	0		3.20782861328125	0.07512418365478515	0		4.64725634765625	0.1570236053466797	0		5.56182568359375	0.22105245971679688	0		-0.16145761108398438	5.94156982421875	0		
0.0034646990299224854	-0.0015641510486602782	0		0.4811278381347656	-2.368189453125	0		-1.1550753173828125	0.03725616073608398	0		-0.6851478271484375	-2.702294189453125	0		1.563329345703125	-0.6076229858398438	0		3.2090234375	0.07515069580078125	0		4.6574208984375	0.15488705444335937	0		5.56684423828125	0.203572998046875	0		-0.29053048706054685	5.91865673828125	0		
0.011720699310302734	0.005404572963714599	0		0.5371879272460938	-2.371965576171875	0		-1.078949951171875	0.03519687271118164	0		-0.6789484252929687	-2.696283935546875	0		1.5844359130859376	-0.6098772583007812	0		3.24130859375	0.08370058441162109	0		4.65244970703125	0.1469862823486328	0		5.5811796875	0.19786613464355468	0		-0.14181544494628906	5.94847216796875	0		
0.012811755180358887	0.00547842788696289	0		0.4853317565917969	-2.36608251953125	0		-1.0778585205078124	0.035284736633300784	0		-0.64397314453125	-2.701724609375	0		1.6116392822265626	-0.60222509765625	0		3.229340576171875	0.07993370056152344	0		4.65966552734375	0.15490713500976563	0		5.5743310546875	0.23276104736328124	0		-0.2739557800292969	5.929599609375	0		
0.006721673965454101	-0.0013417459726333617	0		0.5283350830078125	-2.3656640625	0		-1.08900927734375	0.024553207397460936	0		-0.6948849487304688	-2.694845703125	0		1.5665631103515625	-0.6074603881835937	0		3.21537548828125	0.08120320129394532	0		4.66068408203125	0.15493098449707032	0		5.576294921875	0.203327880859375	0		-0.15472300720214843	5.93885302734375	0		
